<?xml version="1.0" encoding="UTF-8" standalone="no"?>
<svg
   xmlns:dc="http://purl.org/dc/elements/1.1/"
   xmlns:cc="http://creativecommons.org/ns#"
   xmlns:rdf="http://www.w3.org/1999/02/22-rdf-syntax-ns#"
   xmlns:svg="http://www.w3.org/2000/svg"
   xmlns="http://www.w3.org/2000/svg"
   viewBox="0 0 192 192"
   height="192"
   width="192"
   xml:space="preserve"
   id="svg2"
   version="1.1">
  <g>
    <rect x="16" y="16" width="160" height="160" stroke="black" stroke-width="2" fill="white" rx="16" ry="16"/>
    <line x1="17" x2="175" y1="32" y2="32" stroke-width="2" stroke="#ddd"/>
    <line x1="17" x2="175" y1="64" y2="64" stroke-width="2" stroke="#ddd"/>
    <line x1="17" x2="175" y1="96" y2="96" stroke-width="2" stroke="#ddd"/>
    <line x1="17" x2="175" y1="128" y2="128" stroke-width="2" stroke="#ddd"/>
    <line x1="17" x2="175" y1="160" y2="160" stroke-width="2" stroke="#ddd"/>
    <line y1="17" y2="175" x1="32" x2="32" stroke-width="2" stroke="#ddd"/>
    <line y1="17" y2="175" x1="64" x2="64" stroke-width="2" stroke="#ddd"/>
    <line y1="17" y2="175" x1="96" x2="96" stroke-width="2" stroke="#ddd"/>
    <line y1="17" y2="175" x1="128" x2="128" stroke-width="2" stroke="#ddd"/>
    <line y1="17" y2="175" x1="160" x2="160" stroke-width="2" stroke="#ddd"/>
  </g>
  <g>
    <circle cx="64" cy="64" r="14" stroke="black" stroke-width="2" fill="black"/>
    <circle cx="96" cy="96" r="14" stroke="black" stroke-width="2" fill="black"/>
    <circle cx="128" cy="64" r="14" stroke="black" stroke-width="2" fill="black"/>
    <circle cx="32" cy="64" r="14" stroke="#41b883" stroke-width="2" fill="#41b883"/>
    <circle cx="64" cy="96" r="14" stroke="#41b883" stroke-width="2" fill="#41b883"/>
    <circle cx="96" cy="128" r="14" stroke="#41b883" stroke-width="2" fill="#41b883"/>
    <circle cx="128" cy="96" r="14" stroke="#41b883" stroke-width="2" fill="#41b883"/>
    <circle cx="160" cy="64" r="14" stroke="#41b883" stroke-width="2" fill="#41b883"/>
  </g>
</svg>
